<svg width="25" height="25" viewBox="0 0 25 25" fill="none" xmlns="http://www.w3.org/2000/svg">
<path d="M12.3596 2.36852C15.6619 2.36852 16.053 2.383 17.3517 2.44094C18.5587 2.49404 19.2105 2.69682 19.645 2.8658C20.2195 3.08788 20.6347 3.35825 21.0644 3.78794C21.4989 4.22246 21.7645 4.63283 21.9866 5.20736C22.1556 5.64188 22.3583 6.29848 22.4114 7.50065C22.4694 8.8042 22.4839 9.19526 22.4839 12.4928C22.4839 15.7951 22.4694 16.1862 22.4114 17.4849C22.3583 18.6919 22.1556 19.3437 21.9866 19.7782C21.7645 20.3527 21.4941 20.7679 21.0644 21.1976C20.6299 21.6321 20.2195 21.8977 19.645 22.1197C19.2105 22.2887 18.5539 22.4915 17.3517 22.5446C16.0482 22.6025 15.6571 22.617 12.3596 22.617C9.05727 22.617 8.66621 22.6025 7.36748 22.5446C6.16049 22.4915 5.50871 22.2887 5.0742 22.1197C4.49967 21.8977 4.08446 21.6273 3.65477 21.1976C3.22026 20.7631 2.95472 20.3527 2.73263 19.7782C2.56365 19.3437 2.36088 18.6871 2.30777 17.4849C2.24983 16.1813 2.23535 15.7903 2.23535 12.4928C2.23535 9.19044 2.24983 8.79937 2.30777 7.50065C2.36088 6.29365 2.56365 5.64188 2.73263 5.20736C2.95472 4.63283 3.22508 4.21763 3.65477 3.78794C4.08929 3.35342 4.49967 3.08788 5.0742 2.8658C5.50871 2.69682 6.16532 2.49404 7.36748 2.44094C8.66621 2.383 9.05727 2.36852 12.3596 2.36852ZM12.3596 0.142822C9.00416 0.142822 8.58413 0.157306 7.26609 0.215242C5.95289 0.273177 5.05006 0.485608 4.26792 0.78977C3.452 1.10842 2.7616 1.52845 2.07603 2.21885C1.38563 2.90442 0.965594 3.59482 0.646948 4.40592C0.342786 5.19288 0.130355 6.09088 0.0724195 7.40409C0.0144839 8.72695 0 9.14698 0 12.5024C0 15.8579 0.0144839 16.2779 0.0724195 17.5959C0.130355 18.9091 0.342786 19.812 0.646948 20.5941C0.965594 21.41 1.38563 22.1004 2.07603 22.786C2.7616 23.4716 3.452 23.8964 4.2631 24.2102C5.05006 24.5144 5.94806 24.7268 7.26127 24.7848C8.5793 24.8427 8.99933 24.8572 12.3548 24.8572C15.7102 24.8572 16.1302 24.8427 17.4483 24.7848C18.7615 24.7268 19.6643 24.5144 20.4465 24.2102C21.2575 23.8964 21.9479 23.4716 22.6335 22.786C23.3191 22.1004 23.744 21.41 24.0578 20.5989C24.3619 19.812 24.5744 18.914 24.6323 17.6008C24.6902 16.2827 24.7047 15.8627 24.7047 12.5073C24.7047 9.15181 24.6902 8.73178 24.6323 7.41374C24.5744 6.10054 24.3619 5.19771 24.0578 4.41557C23.7536 3.59482 23.3336 2.90442 22.6432 2.21885C21.9576 1.53328 21.2672 1.10842 20.4561 0.794598C19.6691 0.490436 18.7711 0.278005 17.4579 0.22007C16.1351 0.157306 15.715 0.142822 12.3596 0.142822Z" fill="#5B86AC"/>
<path d="M12.3596 6.15381C8.85454 6.15381 6.01086 8.99748 6.01086 12.5026C6.01086 16.0077 8.85454 18.8514 12.3596 18.8514C15.8647 18.8514 18.7084 16.0077 18.7084 12.5026C18.7084 8.99748 15.8647 6.15381 12.3596 6.15381ZM12.3596 16.6208C10.0857 16.6208 8.24139 14.7766 8.24139 12.5026C8.24139 10.2286 10.0857 8.38433 12.3596 8.38433C14.6336 8.38433 16.4779 10.2286 16.4779 12.5026C16.4779 14.7766 14.6336 16.6208 12.3596 16.6208Z" fill="#5B86AC"/>
<path d="M20.4417 5.9026C20.4417 6.72335 19.7754 7.38479 18.9595 7.38479C18.1387 7.38479 17.4773 6.71853 17.4773 5.9026C17.4773 5.08184 18.1436 4.42041 18.9595 4.42041C19.7754 4.42041 20.4417 5.08667 20.4417 5.9026Z" fill="#5B86AC"/>
</svg>
