<svg width="26" height="19" viewBox="0 0 26 19" fill="none" xmlns="http://www.w3.org/2000/svg">
<path d="M25.1777 4.55858C25.1777 4.55858 24.9363 2.85431 24.1928 2.10597C23.2513 1.12107 22.1988 1.11624 21.716 1.05831C18.2592 0.807251 13.0691 0.807251 13.0691 0.807251H13.0595C13.0595 0.807251 7.86942 0.807251 4.41259 1.05831C3.9298 1.11624 2.8773 1.12107 1.93584 2.10597C1.19234 2.85431 0.955766 4.55858 0.955766 4.55858C0.955766 4.55858 0.704712 6.56219 0.704712 8.56097V10.4342C0.704712 12.433 0.950938 14.4366 0.950938 14.4366C0.950938 14.4366 1.19234 16.1409 1.93102 16.8892C2.87247 17.8741 4.10843 17.8403 4.65882 17.9465C6.63829 18.1348 13.0643 18.1928 13.0643 18.1928C13.0643 18.1928 18.2592 18.1831 21.716 17.9369C22.1988 17.8789 23.2513 17.8741 24.1928 16.8892C24.9363 16.1409 25.1777 14.4366 25.1777 14.4366C25.1777 14.4366 25.4239 12.4378 25.4239 10.4342V8.56097C25.4239 6.56219 25.1777 4.55858 25.1777 4.55858ZM10.5103 12.7082V5.76075L17.1874 9.24654L10.5103 12.7082Z" fill="#5B86AC"/>
</svg>
