<svg width="612" height="612" viewBox="0 0 612 612" fill="none" xmlns="http://www.w3.org/2000/svg">
<circle cx="306" cy="306" r="306" transform="rotate(-90 306 306)" fill="#5B86AC"/>
<path d="M375.684 300.141C394.842 304.61 408.751 312.103 417.412 322.62C426.072 333.136 430.402 346.807 430.402 363.634C430.402 386.77 422.398 405.436 406.389 419.634C390.38 433.831 366.76 440.929 335.53 440.929H208.771V173.155H328.051C358.231 173.155 380.801 179.465 395.76 192.084C410.982 204.704 418.593 222.056 418.593 244.141C418.593 257.549 414.919 269.249 407.57 279.239C400.484 288.967 389.855 295.934 375.684 300.141ZM262.703 214.958V283.577H323.327C336.449 283.577 346.553 280.422 353.639 274.113C360.987 267.803 364.661 259.39 364.661 248.873C364.661 237.831 360.855 229.418 353.245 223.634C345.634 217.849 334.874 214.958 320.965 214.958H262.703ZM328.444 399.127C360.2 399.127 376.077 386.507 376.077 361.267C376.077 337.08 360.331 324.986 328.838 324.986H262.703V399.127H328.444Z" fill="#F5F5F5"/>
<g style="mix-blend-mode:color-burn">
<path d="M205.96 409.944C226.925 409.944 243.92 392.918 243.92 371.915C243.92 350.913 226.925 333.887 205.96 333.887C184.995 333.887 168 350.913 168 371.915C168 392.918 184.995 409.944 205.96 409.944Z" fill="#0D1321"/>
</g>
</svg>
