<svg width="2672" height="1090" viewBox="0 0 2672 1090" fill="none" xmlns="http://www.w3.org/2000/svg">
<rect width="2672" height="1090" fill="#5B86AC"/>
<path d="M792.3 528.1C826.367 536.033 851.1 549.333 866.5 568C881.9 586.667 889.6 610.933 889.6 640.8C889.6 681.867 875.367 715 846.9 740.2C818.433 765.4 776.433 778 720.9 778H495.5V302.7H707.6C761.267 302.7 801.4 313.9 828 336.3C855.067 358.7 868.6 389.5 868.6 428.7C868.6 452.5 862.067 473.267 849 491C836.4 508.267 817.5 520.633 792.3 528.1ZM591.4 376.9V498.7H699.2C722.533 498.7 740.5 493.1 753.1 481.9C766.167 470.7 772.7 455.767 772.7 437.1C772.7 417.5 765.933 402.567 752.4 392.3C738.867 382.033 719.733 376.9 695 376.9H591.4ZM708.3 703.8C764.767 703.8 793 681.4 793 636.6C793 593.667 765 572.2 709 572.2H591.4V703.8H708.3ZM910.026 416.1H1002.43V778H910.026V416.1ZM956.926 364.3C940.592 364.3 927.059 358.933 916.326 348.2C906.059 337.467 900.926 324.633 900.926 309.7C900.926 294.3 906.059 281.467 916.326 271.2C927.059 260.467 940.592 255.1 956.926 255.1C972.792 255.1 985.859 260.467 996.126 271.2C1006.39 281.467 1011.53 294.3 1011.53 309.7C1011.53 324.633 1006.39 337.467 996.126 348.2C985.859 358.933 972.792 364.3 956.926 364.3ZM1403.74 274V778H1320.44V717.1C1308.77 739.967 1292.91 757.233 1272.84 768.9C1252.77 780.567 1228.97 786.4 1201.44 786.4C1172.51 786.4 1145.44 778.933 1120.24 764C1095.51 748.6 1075.67 726.667 1060.74 698.2C1045.81 669.733 1038.34 636.133 1038.34 597.4C1038.34 558.2 1045.34 524.367 1059.34 495.9C1073.81 466.967 1093.17 445.033 1117.44 430.1C1141.71 415.167 1168.54 407.7 1197.94 407.7C1248.34 407.7 1286.14 425.667 1311.34 461.6V274H1403.74ZM1221.74 712.2C1248.34 712.2 1269.81 701.933 1286.14 681.4C1302.94 660.4 1311.34 632.4 1311.34 597.4C1311.34 562.867 1302.94 535.1 1286.14 514.1C1269.34 492.633 1247.87 481.9 1221.74 481.9C1194.21 481.9 1172.27 492.4 1155.94 513.4C1139.61 534.4 1131.44 562.4 1131.44 597.4C1131.44 631.933 1139.84 659.7 1156.64 680.7C1173.44 701.7 1195.14 712.2 1221.74 712.2ZM1437.13 416.1H1529.53V778H1437.13V416.1ZM1484.03 364.3C1467.7 364.3 1454.16 358.933 1443.43 348.2C1433.16 337.467 1428.03 324.633 1428.03 309.7C1428.03 294.3 1433.16 281.467 1443.43 271.2C1454.16 260.467 1467.7 255.1 1484.03 255.1C1499.9 255.1 1512.96 260.467 1523.23 271.2C1533.5 281.467 1538.63 294.3 1538.63 309.7C1538.63 324.633 1533.5 337.467 1523.23 348.2C1512.96 358.933 1499.9 364.3 1484.03 364.3ZM1762.14 341.2C1724.34 341.2 1705.44 358.933 1705.44 394.4V416.1H1791.54V492.4H1705.44V778H1613.04V492.4H1556.34V416.1H1613.04V395.1C1613.04 354.033 1624.48 322.533 1647.34 300.6C1670.68 278.2 1701.94 267 1741.14 267C1761.68 267 1779.64 269.567 1795.04 274.7V345.4C1784.78 342.6 1773.81 341.2 1762.14 341.2ZM2139.14 416.1L1925.64 909.6H1827.64L1903.94 745.8L1765.34 416.1H1863.34L1951.54 653.4L2045.34 416.1H2139.14Z" fill="#F5F5F5"/>
<g clip-path="url(#clip0_53_2296)">
<path d="M2205 297C2216.67 297 2227.86 292.364 2236.11 284.113C2244.36 275.861 2249 264.67 2249 253C2249 241.33 2244.36 230.139 2236.11 221.887C2227.86 213.636 2216.67 209 2205 209C2193.33 209 2182.14 213.636 2173.89 221.887C2165.64 230.139 2161 241.33 2161 253C2161 264.67 2165.64 275.861 2173.89 284.113C2182.14 292.364 2193.33 297 2205 297ZM2195.27 262.728C2200.63 268.091 2209.35 268.091 2214.71 262.728C2216.33 261.112 2218.94 261.112 2220.54 262.728C2222.14 264.344 2222.15 266.956 2220.54 268.555C2211.94 277.148 2198.02 277.148 2189.43 268.555C2180.83 259.961 2180.83 246.039 2189.43 237.445C2198.02 228.852 2211.94 228.852 2220.54 237.445C2222.15 239.061 2222.15 241.673 2220.54 243.272C2218.92 244.87 2216.31 244.888 2214.71 243.272C2209.35 237.909 2200.63 237.909 2195.27 243.272C2189.91 248.634 2189.91 257.348 2195.27 262.711V262.728Z" fill="#F5F5F5"/>
</g>
<rect x="1438" y="493" width="77" height="361" transform="rotate(-90 1438 493)" fill="#F5F5F5"/>
<g style="mix-blend-mode:color-burn">
<circle cx="490.5" cy="655.5" r="67.5" fill="#0D1321"/>
</g>
<defs>
<clipPath id="clip0_53_2296">
<rect width="88" height="88" fill="white" transform="translate(2161 209)"/>
</clipPath>
</defs>
</svg>
