<svg width="1826" height="855" viewBox="0 0 1826 855" fill="none" xmlns="http://www.w3.org/2000/svg">
<path d="M369.3 380.1C403.367 388.033 428.1 401.333 443.5 420C458.9 438.667 466.6 462.933 466.6 492.8C466.6 533.867 452.367 567 423.9 592.2C395.433 617.4 353.433 630 297.9 630H72.5V154.7H284.6C338.267 154.7 378.4 165.9 405 188.3C432.067 210.7 445.6 241.5 445.6 280.7C445.6 304.5 439.067 325.267 426 343C413.4 360.267 394.5 372.633 369.3 380.1ZM168.4 228.9V350.7H276.2C299.533 350.7 317.5 345.1 330.1 333.9C343.167 322.7 349.7 307.767 349.7 289.1C349.7 269.5 342.933 254.567 329.4 244.3C315.867 234.033 296.733 228.9 272 228.9H168.4ZM285.3 555.8C341.767 555.8 370 533.4 370 488.6C370 445.667 342 424.2 286 424.2H168.4V555.8H285.3ZM487.026 268.1H579.426V630H487.026V268.1ZM533.926 216.3C517.592 216.3 504.059 210.933 493.326 200.2C483.059 189.467 477.926 176.633 477.926 161.7C477.926 146.3 483.059 133.467 493.326 123.2C504.059 112.467 517.592 107.1 533.926 107.1C549.792 107.1 562.859 112.467 573.126 123.2C583.392 133.467 588.526 146.3 588.526 161.7C588.526 176.633 583.392 189.467 573.126 200.2C562.859 210.933 549.792 216.3 533.926 216.3ZM980.739 126V630H897.439V569.1C885.772 591.967 869.906 609.233 849.839 620.9C829.772 632.567 805.972 638.4 778.439 638.4C749.506 638.4 722.439 630.933 697.239 616C672.506 600.6 652.672 578.667 637.739 550.2C622.806 521.733 615.339 488.133 615.339 449.4C615.339 410.2 622.339 376.367 636.339 347.9C650.806 318.967 670.172 297.033 694.439 282.1C718.706 267.167 745.539 259.7 774.939 259.7C825.339 259.7 863.139 277.667 888.339 313.6V126H980.739ZM798.739 564.2C825.339 564.2 846.806 553.933 863.139 533.4C879.939 512.4 888.339 484.4 888.339 449.4C888.339 414.867 879.939 387.1 863.139 366.1C846.339 344.633 824.872 333.9 798.739 333.9C771.206 333.9 749.272 344.4 732.939 365.4C716.606 386.4 708.439 414.4 708.439 449.4C708.439 483.933 716.839 511.7 733.639 532.7C750.439 553.7 772.139 564.2 798.739 564.2ZM1014.13 268.1H1106.53V630H1014.13V268.1ZM1061.03 216.3C1044.7 216.3 1031.16 210.933 1020.43 200.2C1010.16 189.467 1005.03 176.633 1005.03 161.7C1005.03 146.3 1010.16 133.467 1020.43 123.2C1031.16 112.467 1044.7 107.1 1061.03 107.1C1076.9 107.1 1089.96 112.467 1100.23 123.2C1110.5 133.467 1115.63 146.3 1115.63 161.7C1115.63 176.633 1110.5 189.467 1100.23 200.2C1089.96 210.933 1076.9 216.3 1061.03 216.3ZM1339.14 193.2C1301.34 193.2 1282.44 210.933 1282.44 246.4V268.1H1368.54V344.4H1282.44V630H1190.04V344.4H1133.34V268.1H1190.04V247.1C1190.04 206.033 1201.48 174.533 1224.34 152.6C1247.68 130.2 1278.94 119 1318.14 119C1338.68 119 1356.64 121.567 1372.04 126.7V197.4C1361.78 194.6 1350.81 193.2 1339.14 193.2ZM1716.14 268.1L1502.64 761.6H1404.64L1480.94 597.8L1342.34 268.1H1440.34L1528.54 505.4L1622.34 268.1H1716.14Z" fill="#F5F5F5"/>
<mask id="mask0_55_178" style="mask-type:luminance" maskUnits="userSpaceOnUse" x="1738" y="61" width="88" height="88">
<path d="M1826 61H1738V149H1826V61Z" fill="white"/>
</mask>
<g mask="url(#mask0_55_178)">
<path d="M1782 149C1793.67 149 1804.86 144.364 1813.11 136.113C1821.36 127.861 1826 116.67 1826 105C1826 93.3305 1821.36 82.1389 1813.11 73.8873C1804.86 65.6357 1793.67 61 1782 61C1770.33 61 1759.14 65.6357 1750.89 73.8873C1742.64 82.1389 1738 93.3305 1738 105C1738 116.67 1742.64 127.861 1750.89 136.113C1759.14 144.364 1770.33 149 1782 149ZM1772.27 114.728C1777.63 120.091 1786.35 120.091 1791.71 114.728C1793.33 113.113 1795.94 113.113 1797.54 114.728C1799.14 116.344 1799.15 118.956 1797.54 120.555C1788.94 129.148 1775.02 129.148 1766.43 120.555C1757.83 111.961 1757.83 98.0391 1766.43 89.4453C1775.02 80.8516 1788.94 80.8516 1797.54 89.4453C1799.15 91.0609 1799.15 93.6734 1797.54 95.2719C1795.92 96.8703 1793.31 96.8875 1791.71 95.2719C1786.35 89.9094 1777.63 89.9094 1772.27 95.2719C1766.91 100.634 1766.91 109.348 1772.27 114.711V114.728Z" fill="#F5F5F5"/>
</g>
<path d="M1015 268V345H1376V268H1015Z" fill="#F5F5F5"/>
<g style="mix-blend-mode:color-burn">
<path d="M67.5 575C104.779 575 135 544.779 135 507.5C135 470.221 104.779 440 67.5 440C30.2208 440 0 470.221 0 507.5C0 544.779 30.2208 575 67.5 575Z" fill="#0D1321"/>
</g>
</svg>
