<svg width="593" height="278" viewBox="0 0 593 278" fill="none" xmlns="http://www.w3.org/2000/svg">
<g clip-path="url(#clip0_57_301)">
<path d="M119.932 123.588C130.995 126.167 139.027 130.492 144.028 136.561C149.029 142.631 151.53 150.521 151.53 160.232C151.53 173.585 146.908 184.358 137.663 192.552C128.418 200.745 114.779 204.842 96.7441 204.842H23.5447V50.3001H92.4249C109.853 50.3001 122.887 53.9417 131.525 61.225C140.315 68.5083 144.71 78.5228 144.71 91.2685C144.71 99.007 142.589 105.759 138.345 111.525C134.253 117.139 128.115 121.16 119.932 123.588ZM54.6885 74.426V114.029H89.697C97.2745 114.029 103.109 112.208 107.201 108.566C111.445 104.925 113.566 100.069 113.566 93.9998C113.566 87.6269 111.369 82.7715 106.974 79.4332C102.579 76.0949 96.3651 74.426 88.333 74.426H54.6885ZM92.6522 180.716C110.99 180.716 120.159 173.433 120.159 158.866C120.159 144.907 111.066 137.927 92.8796 137.927H54.6885V180.716H92.6522ZM158.163 87.1717H188.171V204.842H158.163V87.1717ZM173.394 70.3291C168.09 70.3291 163.695 68.5841 160.209 65.0943C156.875 61.6045 155.208 57.4315 155.208 52.5761C155.208 47.5689 156.875 43.3963 160.209 40.058C163.695 36.5682 168.09 34.8232 173.394 34.8232C178.547 34.8232 182.79 36.5682 186.125 40.058C189.459 43.3963 191.126 47.5689 191.126 52.5761C191.126 57.4315 189.459 61.6045 186.125 65.0943C182.79 68.5841 178.547 70.3291 173.394 70.3291ZM318.499 40.9684V204.842H291.447V185.041C287.658 192.476 282.505 198.09 275.988 201.883C269.471 205.677 261.742 207.573 252.801 207.573C243.405 207.573 234.615 205.145 226.431 200.29C218.399 195.283 211.958 188.151 207.108 178.895C202.259 169.639 199.834 158.715 199.834 146.121C199.834 133.375 202.107 122.374 206.653 113.118C211.352 103.711 217.641 96.5791 225.522 91.7237C233.402 86.8683 242.116 84.4405 251.664 84.4405C268.032 84.4405 280.307 90.2824 288.491 101.966V40.9684H318.499ZM259.393 183.447C268.032 183.447 275.003 180.109 280.307 173.433C285.763 166.605 288.491 157.501 288.491 146.121C288.491 134.892 285.763 125.864 280.307 119.036C274.852 112.056 267.88 108.566 259.393 108.566C250.452 108.566 243.329 111.98 238.025 118.808C232.72 125.636 230.068 134.741 230.068 146.121C230.068 157.349 232.796 166.377 238.252 173.205C243.708 180.033 250.755 183.447 259.393 183.447ZM329.342 87.1717H359.35V204.842H329.342V87.1717ZM344.573 70.3291C339.27 70.3291 334.873 68.5841 331.388 65.0943C328.053 61.6045 326.387 57.4315 326.387 52.5761C326.387 47.5689 328.053 43.3963 331.388 40.058C334.873 36.5682 339.27 34.8232 344.573 34.8232C349.727 34.8232 353.968 36.5682 357.304 40.058C360.639 43.3963 362.305 47.5689 362.305 52.5761C362.305 57.4315 360.639 61.6045 357.304 65.0943C353.968 68.5841 349.727 70.3291 344.573 70.3291ZM434.891 62.8182C422.615 62.8182 416.477 68.5841 416.477 80.116V87.1717H444.438V111.98H416.477V204.842H386.47V111.98H368.056V87.1717H386.47V80.3436C386.47 66.9908 390.185 56.7487 397.609 49.6173C405.189 42.334 415.34 38.6924 428.071 38.6924C434.741 38.6924 440.574 39.527 445.575 41.196V64.1839C442.243 63.2734 438.68 62.8182 434.891 62.8182ZM557.323 87.1717L487.988 247.631H456.162L480.941 194.372L435.93 87.1717H467.756L496.399 164.329L526.861 87.1717H557.323Z" fill="#5B86AC"/>
<mask id="mask0_57_301" style="mask-type:luminance" maskUnits="userSpaceOnUse" x="564" y="19" width="29" height="30">
<path d="M593 19.8339H564.422V48.4468H593V19.8339Z" fill="white"/>
</mask>
<g mask="url(#mask0_57_301)">
<path d="M578.711 48.4468C582.501 48.4468 586.135 46.9394 588.814 44.2566C591.493 41.5735 593 37.9348 593 34.1404C593 30.3461 591.493 26.7072 588.814 24.0242C586.135 21.3412 582.501 19.8339 578.711 19.8339C574.921 19.8339 571.287 21.3412 568.608 24.0242C565.929 26.7072 564.422 30.3461 564.422 34.1404C564.422 37.9348 565.929 41.5735 568.608 44.2566C571.287 46.9394 574.921 48.4468 578.711 48.4468ZM575.551 37.3034C577.292 39.0471 580.124 39.0471 581.864 37.3034C582.39 36.7783 583.238 36.7783 583.758 37.3034C584.277 37.8288 584.28 38.6781 583.758 39.198C580.965 41.992 576.444 41.992 573.654 39.198C570.862 36.4037 570.862 31.877 573.654 29.0828C576.444 26.2886 580.965 26.2886 583.758 29.0828C584.28 29.6081 584.28 30.4576 583.758 30.9773C583.231 31.497 582.384 31.5026 581.864 30.9773C580.124 29.2337 577.292 29.2337 575.551 30.9773C573.81 32.7208 573.81 35.5541 575.551 37.2978V37.3034Z" fill="#5B86AC"/>
</g>
<path d="M329.625 87.1392V112.175H446.861V87.1392H329.625Z" fill="#5B86AC"/>
<g opacity="0.3">
<path d="M21.9209 186.959C34.0274 186.959 43.8417 177.133 43.8417 165.012C43.8417 152.891 34.0274 143.064 21.9209 143.064C9.81431 143.064 0 152.891 0 165.012C0 177.133 9.81431 186.959 21.9209 186.959Z" fill="#1D2D44"/>
</g>
</g>
<defs>
<clipPath id="clip0_57_301">
<rect width="593" height="278" fill="white"/>
</clipPath>
</defs>
</svg>
